<svg width="64" height="64" viewBox="0 0 64 64" fill="none" xmlns="http://www.w3.org/2000/svg">
<circle cx="32" cy="31.9572" r="31.9572" fill="#2378EF" fill-opacity="0.1"/>
<path d="M28.4128 27.09C27.0739 27.0938 25.9841 26.0212 25.9688 24.6843C25.9534 23.3655 27.0581 22.2463 28.3801 22.2407C29.7301 22.2347 30.833 23.3226 30.8381 24.6656C30.8428 25.9923 29.7483 27.0863 28.4128 27.09Z" fill="#262934"/>
<path d="M34.4847 38.028C31.4858 38.028 28.4864 38.0029 25.4879 38.0378C23.8395 38.0574 22.3118 36.7988 22.3183 34.8542C22.33 31.0864 22.3197 27.318 22.3234 23.5497C22.3244 22.7909 22.3006 22.028 22.3677 21.2745C22.5021 19.7654 23.8138 18.602 25.3336 18.5964C27.1177 18.5903 28.9019 18.595 30.686 18.595C34.9473 18.595 39.2085 18.5945 43.4698 18.595C45.3104 18.595 46.6263 19.9067 46.6268 21.7431C46.6277 26.1377 46.6282 30.5324 46.6263 34.927C46.6258 36.4756 45.6233 37.6941 44.1044 37.9833C43.8647 38.029 43.6134 38.0262 43.3677 38.0262C40.407 38.029 37.4458 38.028 34.4847 38.028ZM24.7581 33.0211C24.7828 33.0342 24.808 33.0477 24.8327 33.0608C24.8999 32.981 24.9619 32.8962 25.0356 32.8225C26.041 31.8148 27.0473 30.8075 28.0555 29.8021C28.6375 29.222 29.3309 29.0075 30.1367 29.1908C30.5764 29.291 30.9294 29.5391 31.2381 29.8595C31.6769 30.3146 32.1181 30.7669 32.5751 31.2374C33.1948 30.4937 33.7712 29.8026 34.3476 29.1105C35.2401 28.0389 36.1341 26.9687 37.0243 25.8953C37.5382 25.2755 38.1817 24.9551 38.9949 25.0507C39.6431 25.1268 40.1262 25.4844 40.5385 25.9755C41.3802 26.9785 42.2368 27.9685 43.0883 28.9632C43.4362 29.3698 43.7873 29.7737 44.1907 30.2418C44.1907 30.0679 44.1907 29.977 44.1907 29.886C44.1907 27.2 44.1912 24.514 44.1902 21.8275C44.1902 21.2068 44.0154 21.0315 43.398 21.0315C37.457 21.031 31.5156 21.031 25.5746 21.0315C24.9404 21.0315 24.7581 21.2124 24.7581 21.8387C24.7581 25.4742 24.7581 29.1091 24.7581 32.7446C24.7581 32.8369 24.7581 32.9293 24.7581 33.0211Z" fill="#262934"/>
<path d="M20.4988 27.2551C20.4988 27.3586 20.4988 27.4622 20.4988 27.5657C20.4988 30.0992 20.4852 32.6332 20.5034 35.1667C20.5156 36.845 21.2043 38.1922 22.6154 39.1305C23.2986 39.5847 24.061 39.8374 24.8883 39.8416C26.6151 39.85 28.3419 39.8491 30.0686 39.8495C34.1485 39.8505 38.2288 39.85 42.3087 39.85C42.422 39.85 42.5348 39.85 42.6841 39.85C42.643 40.0048 42.6132 40.1377 42.5726 40.2669C42.2509 41.2956 41.9272 42.3238 41.6031 43.3516C41.1377 44.8299 39.7201 45.618 38.2214 45.2174C32.8419 43.7797 27.4633 42.3369 22.0843 40.8964C21.2533 40.674 20.4214 40.4548 19.5904 40.2319C17.996 39.8034 17.1319 38.2729 17.6015 36.7009C18.5248 33.612 19.4514 30.524 20.3775 27.436C20.3957 27.3745 20.4204 27.3153 20.4419 27.2546C20.4619 27.2551 20.4806 27.2551 20.4988 27.2551Z" fill="#262934"/>
</svg>
