<svg width="24" height="25" viewBox="0 0 24 25" fill="none" xmlns="http://www.w3.org/2000/svg">
<g id="Frame" clip-path="url(#clip0_27_807)">
<path id="Vector" d="M23.5078 12.4745C23.5078 11.4912 23.4295 10.7737 23.2598 10.0296H12.2295V14.4676H18.7041C18.5736 15.5705 17.8687 17.2315 16.3022 18.3475L16.2802 18.4961L19.7678 21.2463L20.0095 21.2709C22.2285 19.1847 23.5078 16.1153 23.5078 12.4745Z" fill="#4285F4"/>
<path id="Vector_2" d="M12.2295 24.1676C15.4015 24.1676 18.0644 23.1045 20.0095 21.2709L16.3022 18.3476C15.3101 19.0518 13.9786 19.5434 12.2295 19.5434C9.12274 19.5434 6.48592 17.4574 5.54596 14.574L5.40819 14.5859L1.78174 17.4427L1.73431 17.5769C3.66624 21.4834 7.63456 24.1676 12.2295 24.1676Z" fill="#34A853"/>
<path id="Vector_3" d="M5.54609 14.574C5.29808 13.8299 5.15454 13.0326 5.15454 12.2088C5.15454 11.3849 5.29808 10.5877 5.53304 9.84358L5.52647 9.6851L1.85458 6.78239L1.73444 6.84055C0.938206 8.46165 0.481323 10.2821 0.481323 12.2088C0.481323 14.1355 0.938206 15.9558 1.73444 17.5769L5.54609 14.574Z" fill="#FBBC05"/>
<path id="Vector_4" d="M12.2295 4.87405C14.4355 4.87405 15.9236 5.84404 16.7721 6.65463L20.0877 3.3593C18.0514 1.43262 15.4015 0.250023 12.2295 0.250023C7.63455 0.250023 3.66623 2.93408 1.73431 6.84059L5.53291 9.84361C6.48591 6.96022 9.12273 4.87405 12.2295 4.87405Z" fill="#EB4335"/>
</g>
<defs>
<clipPath id="clip0_27_807">
<rect width="23.04" height="24" fill="white" transform="translate(0.47998 0.25)"/>
</clipPath>
</defs>
</svg>
