<svg width="25" height="24" viewBox="0 0 25 24" fill="none" xmlns="http://www.w3.org/2000/svg">
<path d="M9.38478 20.7733V17.7156C9.38478 16.9351 10.0222 16.3023 10.8084 16.3023H13.6826C14.0602 16.3023 14.4223 16.4512 14.6893 16.7163C14.9563 16.9813 15.1063 17.3408 15.1063 17.7156V20.7733C15.1039 21.0978 15.2321 21.4099 15.4624 21.6402C15.6927 21.8705 16.0061 22 16.3329 22H18.2938C19.2096 22.0023 20.0888 21.6428 20.7372 21.0008C21.3856 20.3588 21.75 19.487 21.75 18.5778V9.86686C21.75 9.13246 21.4221 8.43584 20.8546 7.96467L14.184 2.67587C13.0237 1.74856 11.3611 1.7785 10.2354 2.74698L3.71701 7.96467C3.12274 8.42195 2.76755 9.12064 2.75 9.86686V18.5689C2.75 20.4639 4.29738 22 6.20617 22H8.12229C8.80123 22 9.353 21.4562 9.35792 20.7822L9.38478 20.7733Z" fill="#CB001C"/>
</svg>
