<svg width="20" height="21" viewBox="0 0 20 21" fill="none" xmlns="http://www.w3.org/2000/svg">
<path fill-rule="evenodd" clip-rule="evenodd" d="M14.6022 6.66342V7.9412C16.0375 8.38921 17.0833 9.68853 17.0833 11.2404V15.3545C17.0833 17.2757 15.4905 18.8334 13.5268 18.8334H6.47396C4.50942 18.8334 2.91663 17.2757 2.91663 15.3545V11.2404C2.91663 9.68853 3.96325 8.38921 5.3977 7.9412V6.66342C5.40617 4.17907 7.46385 2.16675 9.98726 2.16675C12.5445 2.16675 14.6022 4.17907 14.6022 6.66342ZM10.0042 3.61595C11.7232 3.61595 13.1204 4.98234 13.1204 6.66342V7.7615H6.87957V6.64686C6.88803 4.97406 8.28522 3.61595 10.0042 3.61595ZM10.7409 14.2125C10.7409 14.6183 10.4106 14.9413 9.99573 14.9413C9.58927 14.9413 9.25902 14.6183 9.25902 14.2125V12.3741C9.25902 11.9766 9.58927 11.6536 9.99573 11.6536C10.4106 11.6536 10.7409 11.9766 10.7409 12.3741V14.2125Z" fill="#9E9E9E"/>
</svg>
