<svg width="55" height="55" viewBox="0 0 55 55" fill="none" xmlns="http://www.w3.org/2000/svg">
<g id="Layer_1" clip-path="url(#clip0_32_7246)">
<path id="Vector" d="M54.1456 25.3605C53.6452 24.6312 53.1 23.9349 52.5666 23.2292C51.606 21.9523 51.1434 20.5362 51.318 18.9289C51.4313 17.8951 51.5257 16.859 51.6343 15.8229C51.8042 14.2108 51.3416 13.288 49.9066 12.5445C49.1773 12.1669 48.4221 11.827 47.6503 11.5414C45.5615 10.772 44.1902 9.34172 43.4042 7.26237C43.0266 6.26164 42.5003 5.30812 41.9787 4.37111C41.6601 3.79758 41.096 3.41995 40.4327 3.42467C39.2621 3.43175 38.082 3.46479 36.9207 3.60876C34.9854 3.84951 33.2152 3.59224 31.6433 2.34133C30.8597 1.71824 30.036 1.14706 29.2099 0.580613C28.0652 -0.205337 26.8946 -0.195896 25.7522 0.587694C24.9427 1.14234 24.1449 1.71824 23.3661 2.31537C22.0491 3.32554 20.5952 3.84479 18.9194 3.66541C17.9447 3.56156 16.9652 3.47187 15.9928 3.35386C14.2179 3.13908 13.2974 3.59696 12.4855 5.18067C12.1385 5.86041 11.8199 6.55903 11.5579 7.27653C10.779 9.4078 9.33224 10.8168 7.20097 11.5981C6.26869 11.9403 5.37889 12.4171 4.50561 12.8962C3.85655 13.2526 3.40339 13.845 3.40575 14.6073C3.41047 15.7591 3.45059 16.9204 3.59929 18.0603C3.85655 20.0217 3.56624 21.806 2.30117 23.385C1.71348 24.119 1.17063 24.8931 0.630141 25.6649C-0.219535 26.8828 -0.212455 28.1196 0.639582 29.3327C1.20367 30.1375 1.789 30.9258 2.3767 31.7118C3.32078 32.9674 3.82351 34.3529 3.66537 35.9437C3.545 37.1544 3.42463 38.3652 3.35618 39.045C3.24998 40.8482 3.7763 41.7946 4.91628 42.354C5.9359 42.8544 6.97675 43.3122 8.01996 43.763C9.49509 44.4027 10.5525 45.4529 11.1992 46.921C11.4918 47.5842 11.7515 48.264 12.063 48.9154C12.3415 49.4983 12.6436 50.0719 12.9906 50.6147C13.3564 51.1883 13.911 51.5753 14.5979 51.5706C15.7119 51.5635 16.8354 51.5399 17.9352 51.3912C19.9532 51.1175 21.7942 51.3865 23.4251 52.7106C24.2016 53.3408 25.0276 53.9119 25.8632 54.4642C26.9135 55.1605 28.011 55.1723 29.0683 54.4878C29.8425 53.9875 30.5954 53.4493 31.3176 52.8758C32.7786 51.7122 34.3906 51.0868 36.2859 51.3275C37.2205 51.4455 38.1599 51.5281 39.0945 51.6343C40.7585 51.8232 41.6931 51.3511 42.4578 49.8571C42.8496 49.09 43.2036 48.2994 43.5081 47.4945C44.2445 45.5592 45.5662 44.2469 47.5016 43.5081C48.3607 43.1801 49.1915 42.7765 50.0223 42.3752C51.2496 41.7852 51.7358 40.7538 51.6461 39.4368C51.5918 38.6343 51.5092 37.8318 51.3912 37.0364C51.0938 35.0468 51.3605 33.2082 52.6752 31.5961C53.1968 30.9589 53.683 30.2886 54.1479 29.6065C55.2785 27.9496 55.2785 27.0103 54.1409 25.3534L54.1456 25.3605ZM39.4202 22.9436C38.1079 24.2724 36.7815 25.5871 35.4621 26.9064C32.5426 29.826 29.6253 32.7456 26.7058 35.6628C25.5115 36.8571 24.3054 36.8618 23.1206 35.6793C20.6046 33.1657 18.0815 30.6568 15.575 28.1314C14.284 26.8309 14.7796 24.7751 16.4908 24.2677C16.6937 24.2063 16.9132 24.1969 17.1257 24.1638C17.8502 24.1638 18.4049 24.499 18.8935 24.9899C20.5999 26.7034 22.311 28.4122 24.0198 30.121C24.7491 30.8503 25.0536 30.8527 25.7711 30.1352C29.2194 26.6893 32.6629 23.2386 36.1136 19.7951C37.2889 18.6221 38.9789 18.7401 39.8049 20.0406C40.3997 20.9752 40.2628 22.0916 39.4226 22.9436H39.4202Z" fill="#8BD1CB"/>
</g>
<defs>
<clipPath id="clip0_32_7246">
<rect width="55" height="55" fill="white"/>
</clipPath>
</defs>
</svg>
