<svg width="18" height="25" viewBox="0 0 18 25" fill="none" xmlns="http://www.w3.org/2000/svg">
<path fill-rule="evenodd" clip-rule="evenodd" d="M8.81865 23.2723C4.51153 23.2723 0.833344 22.602 0.833344 19.9178C0.833344 17.2335 4.48819 14.7556 8.81865 14.7556C13.1258 14.7556 16.8039 17.2095 16.8039 19.8938C16.8039 22.5769 13.1491 23.2723 8.81865 23.2723Z" stroke="#212121" stroke-width="1.5" stroke-linecap="round" stroke-linejoin="round"/>
<path fill-rule="evenodd" clip-rule="evenodd" d="M8.8102 11.036C11.6367 11.036 13.9276 8.74505 13.9276 5.91853C13.9276 3.09202 11.6367 0.800049 8.8102 0.800049C5.98368 0.800049 3.69171 3.09202 3.69171 5.91853C3.68217 8.7355 5.95717 11.0264 8.77414 11.036C8.78686 11.036 8.79853 11.036 8.8102 11.036Z" stroke="#212121" stroke-width="1.5" stroke-linecap="round" stroke-linejoin="round"/>
</svg>
